<svg xmlns="http://www.w3.org/2000/svg" width="24" height="24" fill="none" stroke="currentColor" stroke-linecap="round" stroke-linejoin="round" class="icon icon-tabler icons-tabler-outline icon-tabler-sort-ascending-small-big"><path d="M0 0h24v24H0z" stroke="none"/><path d="M4 15l3 3 3-3M7 6v12m7-12.333c0-.369.298-.667.667-.667h2.666c.369 0 .667.298.667.667v2.666a.667.667 0 01-.667.667h-2.666A.667.667 0 0114 8.333V5.667zm0 7.5c0-.645.522-1.167 1.167-1.167h4.666c.645 0 1.167.522 1.167 1.167v4.666c0 .645-.522 1.167-1.167 1.167h-4.666A1.167 1.167 0 0114 17.833v-4.666z"/></svg>