<svg xmlns="http://www.w3.org/2000/svg" width="24" height="24" fill="none" stroke="#fff" stroke-linecap="round" stroke-linejoin="round" class="icon icon-tabler icons-tabler-outline icon-tabler-world-www"><path d="M0 0h24v24H0z" stroke="none"/><path d="M19.5 7A9 9 0 0012 3a8.991 8.991 0 00-7.484 4M11.5 3a16.989 16.989 0 00-1.826 4M12.5 3a16.989 16.989 0 011.828 4M19.5 17a9 9 0 01-7.5 4 8.991 8.991 0 01-7.484-4m6.984 4a16.989 16.989 0 01-1.826-4m2.826 4a16.989 16.989 0 001.828-4M2 10l1 4 1.5-4L6 14l1-4m10 0l1 4 1.5-4 1.5 4 1-4M9.5 10l1 4 1.5-4 1.5 4 1-4"/></svg>